<svg id="Layer_1" data-name="Layer 1" xmlns="http://www.w3.org/2000/svg" xmlns:xlink="http://www.w3.org/1999/xlink" viewBox="0 0 251.63 173.02"><defs><style>.cls-1{fill:url(#linear-gradient);}.cls-2{fill:url(#linear-gradient-2);}</style><linearGradient id="linear-gradient" x1="259.45" y1="-110.26" x2="82.39" y2="25.94" gradientTransform="matrix(1, 0, 0, -1, 0, 57.15)" gradientUnits="userSpaceOnUse"><stop offset="0.3" stop-color="#f8961d"/><stop offset="1" stop-color="#ffca2e"/></linearGradient><linearGradient id="linear-gradient-2" x1="251.09" y1="-121.13" x2="74.03" y2="15.07" xlink:href="#linear-gradient"/></defs><title>Sporta Logo</title><path class="cls-1" d="M86.74,38.31C102.4,26.85,107.9,25.5,124.18,23.06c0,0-27.89-13.19-52,5.77C51.65,45,46.92,44.22,46.92,44.22S71.08,49.76,86.74,38.31Z"/><path class="cls-2" d="M248.76,75a4,4,0,0,0-.13-.58c0-.1,0-.22-.08-.33A98.82,98.82,0,0,0,114.76,7.65c-.08.28-.13.55-.2.83a20,20,0,0,1,3.88-.36,21.55,21.55,0,0,1,21.32,18.59.33.33,0,0,1,.28,0,.24.24,0,0,1,.24,0l-.49.27s0-.08,0-.1v-.11a76.28,76.28,0,0,0-39.45,14.54A61,61,0,0,0,95,45.59a70.58,70.58,0,0,1-5.17,4.92A76.1,76.1,0,0,1,59.47,66.8a76,76,0,0,1-20.41,2.76A76.26,76.26,0,0,1,0,58.92a98.88,98.88,0,0,0,56.47,61.13,98,98,0,0,0,15.07,4.81A98.47,98.47,0,0,0,94,127.42h.9A52.46,52.46,0,0,0,62.57,138.6a52.62,52.62,0,0,0-12.32,13.81,94.55,94.55,0,0,1,17.16-4.21,99,99,0,0,1,14.52-1.15h.46a98.58,98.58,0,0,1,49.17,13.06l.41.25,1.64,1c.24.16.52.32.79.49a77.92,77.92,0,0,0,11.42,5.69A76.7,76.7,0,0,0,174.44,173c1.91,0,3.8-.08,5.66-.25a77.18,77.18,0,0,0,70.66-65.22,70.6,70.6,0,0,0,.87-10.85v-.08A99.17,99.17,0,0,0,248.76,75ZM137.15,53.35a56.51,56.51,0,0,1,44.42-13.53c.79.08,1.58.22,2.38.36a55.92,55.92,0,0,1,8.72,2.19l-.85-.31V42c0-.08,0-.2.06-.3.24.19.46.35.68.55a.35.35,0,0,1,.16.13,57.69,57.69,0,0,1,23.37,15.22L209.2,69.54H178.12a22.68,22.68,0,0,0-12.3,3.72c-.2.08-.35.22-.55.32a26.68,26.68,0,0,0-3.93,3.12,29.13,29.13,0,0,0-5.77,7.6l-1.8,3.42a17.93,17.93,0,0,0-2.27,6.94,7.36,7.36,0,0,0,.57,3.67s0,.08.06.13c1.28,2.68,4.12,4,8.58,4h21.16L180,105.93a6.72,6.72,0,0,1-2.26,2.46,5.41,5.41,0,0,1-3,1q-10.74,0-28.08-1.25l-2.48-.22h-.14l-13.74,23.78A56.68,56.68,0,0,1,137.15,53.35Zm74.6,85.48a56.54,56.54,0,0,1-45.27,13.39c-.79-.1-1.56-.22-2.34-.38a57.64,57.64,0,0,1-32-18l7.47-12.93c11.75,1.18,23.27,1.75,34.12,1.75a21.06,21.06,0,0,0,7.1-1.2,19,19,0,0,0,3.39-1.48,21.16,21.16,0,0,0,2.35-1.34,28.73,28.73,0,0,0,9.68-10.71l2.08-3.94c2.35-4.45,2.9-8,1.64-10.71a7.2,7.2,0,0,0-.58-1,5.78,5.78,0,0,0-1.69-1.61,11.62,11.62,0,0,0-6.31-1.48H173.65a1.88,1.88,0,0,1-1.94-1,2.62,2.62,0,0,1,.3-2.44,6.56,6.56,0,0,1,2.29-2.46,5.38,5.38,0,0,1,3-1h27.5l.05-.1L218,59.54C238.2,81.39,235.23,118.33,211.75,138.83Z"/></svg>